<mxfile host="app.diagrams.net" agent="Mozilla/5.0 (Windows NT 10.0; Win64; x64) AppleWebKit/537.36 (KHTML, like Gecko) Chrome/131.0.0.0 Safari/537.36" version="26.0.6">
  <diagram name="Page-1" id="AY6_aWwINX-cTT2sOiac">
    <mxGraphModel dx="954" dy="618" grid="1" gridSize="10" guides="1" tooltips="1" connect="1" arrows="1" fold="1" page="1" pageScale="1" pageWidth="827" pageHeight="1169" math="0" shadow="0">
      <root>
        <mxCell id="0" />
        <mxCell id="1" parent="0" />
        <mxCell id="zVMtgl9TMcd4cLcIDBBs-1" value="Application bureautique" style="text;html=1;align=center;verticalAlign=middle;whiteSpace=wrap;rounded=0;" vertex="1" parent="1">
          <mxGeometry width="180" height="30" as="geometry" />
        </mxCell>
        <mxCell id="zVMtgl9TMcd4cLcIDBBs-5" style="edgeStyle=orthogonalEdgeStyle;rounded=0;orthogonalLoop=1;jettySize=auto;html=1;entryX=0;entryY=0.5;entryDx=0;entryDy=0;" edge="1" parent="1" source="zVMtgl9TMcd4cLcIDBBs-3" target="zVMtgl9TMcd4cLcIDBBs-4">
          <mxGeometry relative="1" as="geometry" />
        </mxCell>
        <mxCell id="zVMtgl9TMcd4cLcIDBBs-3" value="EmployÃ©" style="shape=umlActor;verticalLabelPosition=bottom;verticalAlign=top;html=1;outlineConnect=0;" vertex="1" parent="1">
          <mxGeometry x="40" y="100" width="30" height="60" as="geometry" />
        </mxCell>
        <mxCell id="zVMtgl9TMcd4cLcIDBBs-7" style="edgeStyle=orthogonalEdgeStyle;rounded=0;orthogonalLoop=1;jettySize=auto;html=1;entryX=0;entryY=0.5;entryDx=0;entryDy=0;" edge="1" parent="1" source="zVMtgl9TMcd4cLcIDBBs-4" target="zVMtgl9TMcd4cLcIDBBs-6">
          <mxGeometry relative="1" as="geometry" />
        </mxCell>
        <mxCell id="zVMtgl9TMcd4cLcIDBBs-4" value="Consulter les salles" style="ellipse;whiteSpace=wrap;html=1;" vertex="1" parent="1">
          <mxGeometry x="140" y="90" width="120" height="80" as="geometry" />
        </mxCell>
        <mxCell id="zVMtgl9TMcd4cLcIDBBs-6" value="Communiquer les incidents" style="ellipse;whiteSpace=wrap;html=1;" vertex="1" parent="1">
          <mxGeometry x="340" y="90" width="120" height="80" as="geometry" />
        </mxCell>
      </root>
    </mxGraphModel>
  </diagram>
</mxfile>
